<svg xmlns="http://www.w3.org/2000/svg" width="276" height="230" viewBox="0 0 276 230">
    <defs>
        <linearGradient id="a" x1="50.459%" x2="50.459%" y1="63.093%" y2="37.093%">
            <stop offset="0%" stop-color="gray" stop-opacity=".25"/>
            <stop offset="54%" stop-color="gray" stop-opacity=".12"/>
            <stop offset="100%" stop-color="gray" stop-opacity=".1"/>
        </linearGradient>
        <linearGradient id="b" x1="50.003%" x2="50.003%" y1="99.987%" y2="0%">
            <stop offset="0%" stop-color="gray" stop-opacity=".25"/>
            <stop offset="54%" stop-color="gray" stop-opacity=".12"/>
            <stop offset="100%" stop-color="gray" stop-opacity=".1"/>
        </linearGradient>
    </defs>
    <g fill="none" fill-rule="nonzero">
        <path fill="#2F74EB" d="M160.4 30.74c-17.669-.616-34.496-6.329-50.565-12.58C93.766 11.906 77.85 4.98 60.605 1.667 49.513-.462 36.827-.763 27.892 5.193c-8.602 5.744-11.381 15.63-12.874 24.814-1.125 6.908-1.786 14.18 1.294 20.645 2.14 4.49 5.935 8.265 8.56 12.567 9.138 14.965 2.679 33.42-7.22 48.032-4.641 6.856-10.033 13.4-13.617 20.691C.45 139.233-1.207 147.6 1.93 155.044c3.107 7.384 10.513 12.919 18.537 16.816 16.295 7.917 35.49 10.182 54.22 11.464 41.449 2.842 83.116 1.611 124.675.38 15.38-.456 30.826-.918 45.956-3.3 8.403-1.324 17.076-3.422 23.177-8.492 7.743-6.435 9.662-17.33 4.472-25.401-8.703-13.535-32.76-16.896-38.85-31.42-3.347-7.997.09-16.902 4.957-24.319 10.44-15.906 27.936-29.862 28.856-48.043.634-12.487-7.777-24.994-20.783-30.904-13.63-6.191-32.536-5.415-42.588 4.838C194.2 27.22 176.001 31.281 160.4 30.74z" opacity=".1"/>
        <ellipse cx="132.264" cy="213.862" fill="#2F74EB" opacity=".1" rx="82.983" ry="11.246"/>
        <rect width="2.419" height="19.97" x="175.755" y="79.535" fill="#3A3768" rx=".686"/>
        <rect width="1.357" height="6.575" x="95.377" y="63.889" fill="#3A3768" rx=".678"/>
        <rect width="1.529" height="11.443" x="95.328" y="75.927" fill="#3A3768" rx=".686"/>
        <rect width="1.455" height="11.541" x="95.352" y="91.374" fill="#3A3768" rx=".686"/>
        <rect width="80.916" height="164.744" x="96.144" y="42.163" fill="#3A3768" rx="11.677"/>
        <path fill="#2F74EB" d="M165.646 46.443h-9.281v1.119a5.305 5.305 0 0 1-1.551 3.748 5.286 5.286 0 0 1-3.743 1.552h-29.52a5.286 5.286 0 0 1-3.742-1.552 5.305 5.305 0 0 1-1.55-3.748v-1.119h-8.69c-3.55 0-6.426 2.882-6.426 6.438v143.297c0 1.708.677 3.345 1.882 4.552a6.42 6.42 0 0 0 4.544 1.886h58.077c3.55 0 6.427-2.882 6.427-6.438V52.892a6.444 6.444 0 0 0-1.879-4.56 6.42 6.42 0 0 0-4.548-1.889z"/>
        <rect width="11.299" height="2.297" x="128.797" y="47.083" fill="#E6E8EC" rx="1.149"/>
        <ellipse cx="143.108" cy="48.232" fill="#E6E8EC" rx="1.302" ry="1.305"/>
        <path fill="#2F74EB" d="M205.075 34.938s-22.986-1.39-20.278 14.746c0 0-.546 2.852 2.042 4.146 0 0 .041-1.195 2.359-.788.825.137 1.663.178 2.498.12a5.198 5.198 0 0 0 3.052-1.25s6.462-2.674 8.973-13.252c0 0 1.86-2.309 1.786-2.902l-3.88 1.66s1.327 2.803.273 5.133c0 0-.125-5.032-.87-4.922-.15.022-2.015.97-2.015.97s2.28 4.882.56 8.432c0 0 .652-6.017-1.273-8.079l-2.73 1.597s2.665 5.044.858 9.16c0 0 .464-6.313-1.434-8.771l-2.473 1.933s2.503 4.97.977 8.383c0 0-.199-7.346-1.512-7.901 0 0-2.165 1.914-2.495 2.696 0 0 1.714 3.61.65 5.514 0 0-.653-4.896-1.188-4.923 0 0-2.157 3.243-2.38 5.47 0 0 .092-3.307 1.858-5.776 0 0-2.085.358-3.303 1.712 0 0 .336-2.292 3.836-2.495 0 0 1.782-2.46 2.258-2.609 0 0-3.478-.292-5.589.646 0 0 1.857-2.163 6.227-1.179l2.444-1.999s-4.581-.626-6.525.066c0 0 2.236-1.915 7.183-.52l2.659-1.592s-3.907-.842-6.233-.547c0 0 2.457-1.326 7.013.112l1.911-.856s-2.86-.563-3.699-.653c-.838-.09-.882-.32-.882-.32a9.907 9.907 0 0 1 5.376.599s4.035-1.507 3.966-1.761zM181.497 27.761s-10.374-.626-9.162 6.665c0 0-.243 1.288.923 1.874 0 0 .019-.547 1.067-.359.372.063.75.081 1.127.055.51-.034.994-.234 1.38-.569 0 0 2.92-1.209 4.056-5.99 0 0 .838-1.041.805-1.31l-1.752.75s.597 1.266.128 2.32c0 0-.057-2.273-.393-2.221-.069 0-.912.44-.912.44s1.032 2.207.254 3.81c0 0 .295-2.719-.576-3.651l-1.234.732s1.204 2.279.387 4.138c0 0 .21-2.852-.647-3.962l-1.116.875s1.13 2.245.442 3.787c0 0-.093-3.32-.685-3.571 0 0-.977.864-1.128 1.22 0 0 .776 1.64.295 2.49 0 0-.295-2.212-.546-2.223 0 0-.974 1.466-1.075 2.462a5.345 5.345 0 0 1 .84-2.61 2.936 2.936 0 0 0-1.493.775s.153-1.037 1.734-1.127c0 0 .819-1.113 1.02-1.181 0 0-1.572-.132-2.524.292 0 0 .838-.976 2.811-.533l1.092-.903s-2.072-.273-2.948.03c0 0 1.01-.864 3.246-.235l1.201-.719s-1.766-.38-2.817-.243c0 0 1.111-.6 3.17.049l.86-.386s-1.295-.254-1.674-.295c-.38-.041-.399-.145-.399-.145a4.467 4.467 0 0 1 2.43.273s1.845-.689 1.813-.804z"/>
        <ellipse cx="236.189" cy="211.77" fill="#2F74EB" opacity=".1" rx="7.352" ry="1.244"/>
        <ellipse cx="25.14" cy="221.981" fill="#2F74EB" opacity=".1" rx="7.352" ry="1.244"/>
        <ellipse cx="53.578" cy="228.657" fill="#2F74EB" opacity=".1" rx="7.352" ry="1.244"/>
        <ellipse cx="220.096" cy="225.105" fill="#2F74EB" rx="10.977" ry="1.86"/>
        <path fill="#2F74EB" d="M224.636 222.063c.5-.41.864-.961 1.045-1.583.137-.626-.13-1.367-.731-1.61-.672-.258-1.39.21-1.933.68-.544.47-1.169 1.01-1.881.908a2.87 2.87 0 0 0 .887-2.683 1.13 1.13 0 0 0-.248-.547c-.372-.399-1.049-.23-1.494.088-1.42.998-1.815 2.932-1.823 4.668-.145-.626-.022-1.28-.028-1.914-.005-.635-.177-1.368-.72-1.704a2.164 2.164 0 0 0-1.092-.257c-.64-.025-1.349.04-1.786.509-.546.58-.398 1.553.071 2.187.47.635 1.188 1.042 1.848 1.483.529.315.98.746 1.319 1.26.04.072.074.148.098.228h3.989c.9-.457 1.733-1.033 2.479-1.713zM53.958 198.076s1.501 1.967-.69 4.923c-2.193 2.956-4 5.47-3.277 7.321 0 0 3.309-5.51 6.006-5.587 2.697-.077.923-3.342-2.04-6.657z"/>
        <path fill="#000" d="M53.958 198.076c.13.19.234.399.306.618 2.626 3.09 4.026 5.976 1.501 6.047-2.35.068-5.17 4.28-5.847 5.344.021.082.049.161.079.243 0 0 3.308-5.51 6.006-5.587 2.697-.077.917-3.35-2.045-6.665z" opacity=".1"/>
        <path fill="#FFD037" d="M56.745 200.581c0 .692-.076 1.253-.172 1.253-.095 0-.172-.56-.172-1.253 0-.692.096-.366.191-.366.096 0 .153-.326.153.366z"/>
        <path fill="#FFD037" d="M57.703 201.407c-.606.331-1.135.53-1.179.446-.044-.085.407-.421 1.013-.752.606-.331.368-.09.412 0 .044.09.36-.025-.246.306z"/>
        <path fill="#2F74EB" d="M46.038 198.076s-1.501 1.967.69 4.923c2.193 2.956 4 5.47 3.277 7.321 0 0-3.306-5.51-6.006-5.587-2.7-.077-.928-3.342 2.04-6.657z"/>
        <path fill="#000" d="M46.038 198.076c-.131.19-.235.399-.308.618-2.626 3.09-4.024 5.976-1.502 6.047 2.353.068 5.174 4.28 5.85 5.344-.022.083-.05.164-.081.243 0 0-3.306-5.51-6.006-5.587-2.7-.077-.92-3.35 2.047-6.665z" opacity=".1"/>
        <path fill="#FFD037" d="M43.248 200.581c0 .692.08 1.253.175 1.253.095 0 .172-.56.172-1.253 0-.692-.096-.366-.191-.366-.096 0-.156-.326-.156.366z"/>
        <path fill="#FFD037" d="M42.293 201.407c.606.331 1.133.53 1.179.446.046-.085-.41-.421-1.016-.752-.606-.331-.365-.09-.412 0-.046.09-.357-.025.249.306z"/>
        <path fill="#A8A8A8" d="M43.726 210.071s4.193-.131 5.46-1.03c1.267-.9 6.45-1.98 6.762-.534.311 1.447 6.304 7.19 1.57 7.228-4.734.038-11.002-.738-12.263-1.507-1.262-.768-1.53-4.157-1.53-4.157z"/>
        <path fill="#000" d="M57.6 215.232c-4.734.038-11.002-.739-12.263-1.507-.959-.588-1.344-2.691-1.472-3.66h-.14s.274 3.386 1.527 4.158c1.253.77 7.53 1.545 12.263 1.507 1.365 0 1.837-.498 1.813-1.22-.191.443-.713.714-1.728.722z" opacity=".2"/>
        <path fill="url(#a)" d="M77.32 121.892c.08.077.202.093.299.038-.101.002-.201-.011-.298-.038z"/>
        <path fill="url(#b)" d="M110.034 67.468a54.753 54.753 0 0 1-2.386-.793 12.817 12.817 0 0 0 2.211-4.52l-.084.033c.027-.102.057-.2.084-.301-1.894.782-3.993-.547-5.328-2.246-1.335-1.698-2.244-3.812-3.705-5.379a17.126 17.126 0 0 0-1.963-1.715c-.431-.339-.898-.692-1.425-.708-.852-.025-1.52.82-2.342 1.075a3.167 3.167 0 0 1-1.638-.06c-2.121-.495-4.166-1.406-6.32-1.641a7.29 7.29 0 0 0-3.429.39c-1.092.422-1.583 1.256-2.457 1.915-.947.717-2.834.7-3.95.82a28.238 28.238 0 0 1-4.079.173 9.233 9.233 0 0 0-2.348.087c-1.621.361-2.923 1.669-4.138 2.927a2.188 2.188 0 0 0-.685 1.094c-.015.12-.015.24 0 .36-.013.328.043.654.163.958.367 1.13.891 2.204 1.557 3.189.496.722 1.072 1.4 1.364 2.253.135.42.205.858.21 1.3a9.98 9.98 0 0 1-.144 1.397 17.8 17.8 0 0 1-1.051 3.716c-.257.635-.546 1.267-.614 1.961a3.545 3.545 0 0 0 0 .416c-.082 2.141 2.05 3.686 2.457 5.817.032.176.052.354.06.533-.047 1.33-.792 2.628-1.89 3.142.096.039.194.072.293.107-.095.06-.192.115-.292.164.199.077.404.142.611.203a14.386 14.386 0 0 0-3.115 3.878c-3.674 6.982-28.719 20.678-28.719 20.678s.142.079.371.216a9.046 9.046 0 0 0-.3.197c-2.168 1.466-7.256 5.743-2.656 11.136 0 0 3.59-5.757 6.104-8.205.115-.109.224-.21.33-.306.114.175.15.389.098.59l16.47-9.399s5.853-4.162 7.486-5.103c.562-.323 1.996-1.22 3.71-1.616l-.191.084a7.4 7.4 0 0 1 1.89-.273c2.915.047 6.07 2.215 7.113 10.805 1.395 11.503.748 13.576.3 13.86a.785.785 0 0 1-.163-.03.246.246 0 0 0 .044.033.79.79 0 0 1-.18-.033.25.25 0 0 0 .24.06c.061.019.127.01.183-.021h.22c0 .104-.016.213-.024.32-.022 0-.131.063 0 .07-.033.649-.03 1.368 0 2.093-1.45.082-2.896.17-4.166.249l.115-.61.052-.274c1.11-.09 2.167-.42 2.29-1.34.273-2.012-2.457-3.087-4.764-3.221-2.307-.134-16.197.807-16.197.807s-2.083 2.734 4.521 3.585c.197.104.402.219.609.339 2.585 1.499 6.096 4.255 7.775 5.615l.235.188-.754.61c4.095.941 8.032 16.787 10.208 24.037 2.175 7.25 6.942 6.982 10.89 5.91 3.699-1.01 4.17-11.919 4.215-13.289v-.14l6.576 8.235.5.627c.193.1.382.196.567.287 4.983 2.41 10.486-2.207 8.92-7.458-1.581-5.306-4.038-13.147-5.676-16.461-1.365-2.776-3.143-7.384-4.218-10.278.14-.057.275-.123.407-.197l-.069-.366.069-.036s-1.584-8.355-1.671-14.286v-.312-.194a26.882 26.882 0 0 1 1.944-.383l.021-.257-.139.03.66-7.696s2.43-5.248.571-7.436a4.653 4.653 0 0 1-1.092-2.273c-.31-2.013 0-5.363 4.333-8.15 6.67-4.296 9.258-7.788 9.258-7.788s.141-2.566-3.943-3.775zm-13.246 5.339v-3.555c1.237-.06 2.501.084 3.743 0a9.422 9.422 0 0 0 1.807-.307l.3.21a32.947 32.947 0 0 1-5.85 3.652zm-18.907 55.739c.488.344.98.703 1.463 1.06.3 1.754.565 2.993.584 3.077a24.697 24.697 0 0 0-2.047-4.137z"/>
        <path fill="#FFBDC6" d="M88.571 126.3l-.295 1.603-.226 1.225-.412 2.243-3.997 2.803s-.36-.31-.956-.796c-1.638-1.35-5.08-4.102-7.608-5.579a8.508 8.508 0 0 0-2.091-.965l15.585-.534z"/>
        <path fill="#000" d="M88.571 126.3l-.295 1.603c-.881.048-1.765.002-2.637-.137l-9.325.134c-.44-.027-.852-.06-1.237-.101a8.508 8.508 0 0 0-2.091-.965l15.585-.534z" opacity=".1"/>
        <path fill="#474463" d="M85.64 127.493s4.66.801 4.932-1.193c.273-1.993-2.4-3.07-4.663-3.205-2.263-.134-15.853.801-15.853.801s-2.396 3.203 6.26 3.739l9.323-.142z"/>
        <path fill="#000" d="M88.571 126.3l-.295 1.603-.226 1.225-.412 2.243-3.997 2.803s-.36-.31-.956-.796c-1.638-1.35-5.08-4.102-7.608-5.579a8.508 8.508 0 0 0-2.091-.965l15.585-.534z" opacity=".1"/>
        <path fill="#000" d="M88.571 126.3l-.295 1.603c-.881.048-1.765.002-2.637-.137l-9.325.134c-.44-.027-.852-.06-1.237-.101a8.508 8.508 0 0 0-2.091-.965l15.585-.534z" opacity=".1"/>
        <path fill="#000" d="M85.64 127.487s4.662.799 4.93-1.203c.267-2.002-2.4-3.069-4.663-3.203-2.263-.134-15.853.802-15.853.802s-2.397 3.202 6.26 3.736l9.325-.132z" opacity=".1"/>
        <path fill="#474463" d="M71.452 61.703h24.379v28.959H71.452z"/>
        <path fill="#000" d="M71.452 61.835h24.379v28.959H71.452z" opacity=".1"/>
        <path fill="#FFBDC6" d="M42.88 111.278c-.402.101-.915.49-1.485 1.053-2.457 2.437-5.976 8.155-5.976 8.155-4.5-5.368.48-9.61 2.601-11.068.516-.353.863-.547.863-.547l3.997 2.407zM88.304 70.843s1.198 8.407 5.329 10.41c4.13 2.001-5.33 5.742-5.33 5.742l-12.92-4.808s7.327-2.404 5.86-9.476l7.06-1.868zM74.449 121.421l-.292 1.598-.238 1.23-.412 2.243-3.996 2.8s-.36-.306-.956-.793c-1.638-1.35-5.08-4.102-7.611-5.579a8.456 8.456 0 0 0-2.091-.965l15.596-.534z"/>
        <path fill="#000" d="M74.449 121.421l-.292 1.598c-.881.047-1.765.002-2.637-.137l-9.326.134c-.44-.028-.854-.06-1.24-.101a8.456 8.456 0 0 0-2.09-.966l15.585-.528z" opacity=".1"/>
        <path fill="#474463" d="M71.52 122.622s4.663.799 4.927-1.2c.265-2-2.397-3.072-4.662-3.206-2.266-.134-15.85.801-15.85.801s-2.4 3.203 6.26 3.739l9.325-.134z"/>
        <path fill="#000" d="M73.92 124.25l-.413 2.242-3.996 2.8s-.36-.306-.956-.793l5.285-4.343.08.093z" opacity=".1"/>
        <path fill="#474463" d="M100.315 154.8l-.546-.273-.49-.621-6.446-8.188v.142c-.044 1.367-.508 12.203-4.128 13.204-3.863 1.066-8.523 1.334-10.647-5.872-2.124-7.206-6.006-22.953-9.992-23.889l5.93-4.87s3.926 4.6 5.525 9.003c-.06-.274-2.77-12.964-.546-15.209h19.451s3.003 8.568 5.062 12.813c1.602 3.295 4.007 11.087 5.555 16.36 1.534 5.207-3.852 9.804-8.728 7.4z"/>
        <path fill="#000" d="M99.761 120.62c-3.003 1.78-16.186 1.056-20.474.766l-1.169-.085c-.125 0 .02-.071.02-.071l.12-1.212 3.196-8.138 17.117-9.944c-.347 1.047-.461 2.65-.434 4.485.08 5.896 1.624 14.2 1.624 14.2z" opacity=".1"/>
        <path fill="#F2F1F2" d="M99.761 120.218c-3.003 1.78-16.186 1.056-20.474.766l-1.169-.082-.194-.017.213-.054 1.054-.274 2.263-9.074 17.117-9.941c-.347 1.047-.461 2.65-.434 4.485.08 5.89 1.624 14.191 1.624 14.191z"/>
        <path fill="#000" d="M98.126 106.022c-3.48.804-11.141 3.164-14.084 8.86-1.963 3.794-3.614 5.42-4.766 6.102l-1.169-.082a.685.685 0 0 0 .02-.071l1.053-.274 2.263-9.074 17.117-9.941c-.344 1.042-.461 2.644-.434 4.48zM38.883 108.877l3.997 2.4c-.402.102-.915.49-1.485 1.054-.334-.974-2.425-2.333-3.375-2.913.516-.347.863-.541.863-.541zM77.395 121.058a.237.237 0 0 1-.273-.039c.088.026.18.04.273.039z" opacity=".1"/>
        <path fill="#FF748E" d="M86.44 80.719s-3.6.4-6.13-2.27c0 0-10.647 3.071-14.253 10.01-3.606 6.938-28.119 20.552-28.119 20.552s4.265 2.4 3.863 3.601l16.12-9.342s5.734-4.135 7.325-5.07c1.592-.935 10.393-6.673 12.258 8.94 1.864 15.613 0 13.745 0 13.745s2.664.936 6.527-6.539c3.863-7.474 15.85-9.208 15.85-9.208l.667-7.87s2.377-5.219.546-7.385a4.653 4.653 0 0 1-1.068-2.259c-.303-1.999 0-5.33 4.242-8.098 6.528-4.271 9.06-7.74 9.06-7.74s.132-2.537-3.864-3.738c-3.997-1.2-20.249-7.74-20.249-7.74l-.546 2.27 12.823 9.067s-6.393 5.196-11.466 5.07c0 0 .942 3.87-3.587 4.004z"/>
        <path fill="#000" d="M88.907 74.502a26.103 26.103 0 0 1-.737-3.26l-7.06 1.868a7.767 7.767 0 0 1-.16 4.08 7.584 7.584 0 0 0 7.957-2.688z" opacity=".1"/>
        <ellipse cx="83.043" cy="69.443" fill="#FFBDC6" rx="7.592" ry="7.606"/>
        <path fill="#000" d="M87.08 52.145c2.108.238 4.11 1.146 6.184 1.641.518.163 1.07.184 1.6.063.805-.252 1.46-1.094 2.296-1.07.513 0 .969.367 1.392.704.68.519 1.318 1.09 1.91 1.706 1.431 1.556 2.319 3.651 3.624 5.344 1.305 1.693 3.363 3.008 5.217 2.232-1.262 4.922-5.392 8.672-9.861 8.978-1.783.12-3.61-.252-5.334.274-.43.175-.884.285-1.346.328-.994 0-1.794-.914-2.414-1.803-1.452-2.089-2.601-4.463-4.237-6.369-.546-.629-1.176-1.228-1.94-1.343-.765-.115-1.467.25-2.146.602-1.122.582-2.269 1.187-3.14 2.188-.87 1-1.42 2.488-1.059 3.829.194.727.636 1.383.644 2.144.017 1.211-1.054 2.1-1.264 3.281a12.35 12.35 0 0 0-.052 1.494c-.092 1.619-1.149 2.945-2.252 3.962-.431.397-.906.82-1.032 1.433-.084.416 0 .86-.054 1.28-.161 1.05-1.207 1.584-2.132 1.723a6.195 6.195 0 0 1-3.2-.38c1.294-.615 2.091-2.357 1.79-3.922-.411-2.166-2.584-3.719-2.399-5.926a6.904 6.904 0 0 1 .6-1.95c.475-1.19.819-2.428 1.027-3.692.164-.979.243-2.016-.062-2.945-.273-.85-.844-1.524-1.327-2.24a12.718 12.718 0 0 1-1.537-3.156 2.191 2.191 0 0 1-.148-1.042c.107-.425.34-.806.67-1.094 1.187-1.25 2.456-2.552 4.048-2.907a8.974 8.974 0 0 1 2.298-.09 26.706 26.706 0 0 0 3.994-.17c1.092-.129 2.938-.11 3.863-.82.863-.665 1.349-1.494 2.41-1.915a7.037 7.037 0 0 1 3.37-.372zM91.301 130.695s4.395 8.675 3.063 11.342M99.27 153.895l-6.437-8.177v.142s-.372-2.647.854-1.759c2.686 1.948 6.983 5.14 7.076 5.689.093.55-.87 2.746-1.493 4.105z" opacity=".1"/>
        <g fill="#000" opacity=".1">
            <path d="M90.168 76.715s.546 2.253-1.212 3.38c2.703-.462 2.823-2.57 2.73-3.487a8.56 8.56 0 0 1-1.518.107zM39.55 108.475s24.509-13.612 28.118-20.55c2.58-4.98 8.798-7.966 12.102-9.257-2.408.82-10.522 3.913-13.568 9.79-3.596 6.939-28.119 20.553-28.119 20.553l1.466-.536zM94.94 75.654c4.172-1.3 8.157-4.543 8.157-4.543L90.3 62.031l.292-1.241-1.225-.492-.533 2.27 12.79 9.074a30.892 30.892 0 0 1-6.683 4.012zM95.014 106.407a31.772 31.772 0 0 1 5.012-1.269l.022-.257a33.943 33.943 0 0 0-5.034 1.526zM79.513 120.388h-.117a.24.24 0 0 1-.273-.039c.088.026.18.04.273.039.437-.255 1.092-2.248-.273-13.784-1.469-12.307-7.248-11.347-10.41-9.93 3.233-.892 7.68-.12 8.944 10.463 1.378 11.536.72 13.53.273 13.784a2.948 2.948 0 0 0 1.583-.533zM77.93 120.924a.957.957 0 0 1-.273-.039.24.24 0 0 0 .273.039z"/>
        </g>
        <path fill="#474463" d="M87.08 51.877c2.108.24 4.11 1.146 6.184 1.641.519.162 1.07.182 1.6.06.805-.249 1.46-1.094 2.296-1.07.513.017.969.367 1.392.704.679.52 1.317 1.09 1.91 1.706 1.431 1.556 2.319 3.651 3.624 5.344 1.305 1.693 3.363 3.009 5.217 2.232-1.262 4.923-5.392 8.672-9.861 8.978-1.783.123-3.61-.249-5.334.274-.43.176-.884.287-1.346.328-.994 0-1.794-.913-2.414-1.802-1.452-2.09-2.601-4.46-4.237-6.367-.546-.632-1.176-1.23-1.94-1.346-.765-.114-1.467.252-2.146.605-1.122.582-2.269 1.184-3.14 2.188-.87 1.003-1.42 2.486-1.059 3.828.194.728.636 1.384.644 2.145.017 1.214-1.054 2.1-1.264 3.281-.047.497-.064.995-.052 1.494-.092 1.619-1.149 2.942-2.252 3.962-.431.394-.906.82-1.032 1.43-.084.42 0 .86-.054 1.283-.161 1.05-1.207 1.584-2.132 1.72a6.14 6.14 0 0 1-3.2-.38c1.294-.612 2.091-2.357 1.79-3.919-.411-2.166-2.584-3.722-2.399-5.926a6.876 6.876 0 0 1 .6-1.95c.474-1.191.819-2.43 1.027-3.695.164-.976.243-2.013-.062-2.945-.273-.848-.844-1.523-1.327-2.24a12.746 12.746 0 0 1-1.537-3.153 2.222 2.222 0 0 1-.148-1.045c.11-.42.343-.796.67-1.08 1.187-1.25 2.456-2.549 4.048-2.907a9.097 9.097 0 0 1 2.298-.088 27.083 27.083 0 0 0 3.994-.17c1.092-.128 2.938-.112 3.863-.82.863-.662 1.349-1.493 2.41-1.914a7.086 7.086 0 0 1 3.37-.386z"/>
        <ellipse cx="137.096" cy="126.557" fill="#FFF" rx="15.307" ry="15.334"/>
        <path fill="#3ACC6C" d="M157.208 124.536c0 8.29-4.984 15.763-12.63 18.935a20.432 20.432 0 0 1-22.295-4.443 20.522 20.522 0 0 1-4.434-22.335 20.458 20.458 0 0 1 18.9-12.652c11.3 0 20.46 9.176 20.46 20.495zm-22.822 10.85l15.175-15.203a1.322 1.322 0 0 0 0-1.871l-1.867-1.857a1.315 1.315 0 0 0-1.864 0l-12.378 12.4-5.78-5.804a1.322 1.322 0 0 0-1.867 0l-1.867 1.882a1.328 1.328 0 0 0 0 1.87l8.58 8.593a1.317 1.317 0 0 0 1.868 0v-.01z"/>
    </g>
</svg>
