<svg xmlns="http://www.w3.org/2000/svg" width="315" height="191" viewBox="0 0 315 191">
    <g fill="none" fill-rule="evenodd" transform="translate(-28 -44)">
        <path fill="#F2F2F2" fill-rule="nonzero" d="M242.555 152.62l2.694-.467c.259-.045.515-.1.773-.147-8.783-5.456-12.617-16.274-9.234-26.05 3.383-9.777 13.082-15.903 23.356-14.753l-3.531 8.41 8.366-7.312a22.124 22.124 0 0 1 12.657 11.334 22.152 22.152 0 0 1 .914 16.918c-.14.399-.306.78-.466 1.165 2.362-1.188 4.628-2.57 6.475-4.34 3.741-3.588 5.79-8.539 8.081-14.638a1290.262 1290.262 0 0 0 13.1-36.635c-9.556-5.176-13.938-16.535-10.335-26.795a22.22 22.22 0 0 1 .76-1.858c.07-.152.14-.302.212-.45.28-.58.576-1.148.901-1.693.053-.089.113-.173.167-.26.283-.46.58-.906.895-1.338.117-.162.233-.324.354-.483a22.05 22.05 0 0 1 1.112-1.35c.13-.144.267-.28.4-.42.299-.315.605-.62.92-.917.166-.156.33-.313.5-.463.044-.039.085-.08.129-.119l.006.009c8.039-7.011 19.933-7.279 28.279-.636l-4.595 10.944 8.27-7.225a22.027 22.027 0 0 1 .818 26.07l.024.008c-.09.133-.193.254-.286.385a22.71 22.71 0 0 1-.536.721c-.235.303-.479.596-.728.884-.188.218-.374.438-.57.648a22.11 22.11 0 0 1-.888.885c-.176.169-.345.346-.526.508-.476.425-.967.828-1.476 1.21-.178.134-.366.251-.548.38-.357.25-.716.498-1.086.728-.23.142-.466.272-.701.405-.34.194-.682.382-1.031.557a22.276 22.276 0 0 1-1.838.817c-.247.097-.492.195-.741.283-.412.145-.83.271-1.25.392-.213.06-.422.13-.636.185-.63.161-1.269.298-1.914.404-.121.02-.245.027-.367.045-.534.077-1.072.14-1.614.179-.233.016-.467.018-.701.028a21.81 21.81 0 0 1-1.318.016 21.974 21.974 0 0 1-.772-.033 21.43 21.43 0 0 1-1.289-.113c-.254-.03-.508-.058-.762-.097a22.12 22.12 0 0 1-1.381-.262c-.03-.006-.06-.01-.091-.017a1301.25 1301.25 0 0 1-5.41 15.52 22.092 22.092 0 0 1 32.05 2.643l-7.647 8.464 10.354-4.137a22.076 22.076 0 0 1 .884 16.851 21.72 21.72 0 0 1-2.809 5.44 22.1 22.1 0 0 1-23.27 8.729 22.12 22.12 0 0 1-16.679-18.436c-.195.52-.382 1.046-.577 1.566-2.022 5.38-4.536 12.077-9.586 16.918-3.423 3.282-7.635 5.363-11.675 7.124a132.35 132.35 0 0 1-7.999 3.178 22.154 22.154 0 0 1-9.898 3.157 135.948 135.948 0 0 1-12.934 2.938l-2.716.469c-2.441.418-4.945.849-7.429 1.345.358.107.716.208 1.072.333a22.142 22.142 0 0 1 14.77 21.543l-17.029 5.23 15.409 2.45a22.118 22.118 0 0 1-36.871 6.549c.156.524.313 1.048.471 1.57.313 1.04.623 2.072.921 3.096 4.055 13.943 2.31 24.912-4.914 30.883l-3.92-4.749c7.03-5.813 4.85-17.79 2.925-24.414-.293-1.005-.598-2.02-.906-3.04-2.64-8.78-5.634-18.733-1.757-27.878 5.844-13.784 22.685-16.67 36.218-18.99z"/>
        <path fill="#3F3D56" fill-rule="nonzero" d="M237.59 233.339H118.602c-8.126 0-14.713-6.583-14.713-14.704V164.15c0-1.6.658-3.128 1.82-4.228l63.051-59.735c5.235-4.96 13.437-4.96 18.672 0l60.117 56.954a15.223 15.223 0 0 1 4.754 11.05v50.443c0 3.9-1.55 7.64-4.31 10.397a14.717 14.717 0 0 1-10.403 4.307z"/>
        <path fill="#000" fill-rule="nonzero" d="M103.89 164.904h147.588v59.538c0 4.913-3.988 8.897-8.908 8.897H112.798c-4.92 0-8.909-3.983-8.909-8.897v-59.538z" opacity=".1"/>
        <rect width="109.661" height="109.661" x="122.853" y="117.906" fill="#2F74EB" fill-rule="nonzero" rx="26.181"/>
        <path fill="#000" fill-rule="nonzero" d="M232.514 167.377v60.19h-109.66v-60.19l54.83 26.468z" opacity=".1"/>
        <path fill="#3F3D56" fill-rule="nonzero" d="M178.096 197.451l-70.123-33.912a2.844 2.844 0 0 0-4.084 2.563v58.348c0 2.357.936 4.618 2.602 6.285a8.881 8.881 0 0 0 6.282 2.604H243.42a8.881 8.881 0 0 0 6.282-2.604 8.892 8.892 0 0 0 2.602-6.285V167.1a3.474 3.474 0 0 0-4.983-3.128l-69.224 33.478z"/>
        <path fill="#F2F2F2" fill-rule="nonzero" d="M132.748 128.625h30.507v4.123h-30.507zM130.274 144.291h90.697v2.474h-90.697zM130.274 152.536h90.697v2.474h-90.697zM130.274 160.781h90.697v2.474h-90.697z"/>
        <path stroke="#3F3D56" d="M47.822 233.339H302.6"/>
        <path fill="#46455B" fill-rule="nonzero" d="M28.858 195.411c0 18.23 11.432 32.98 25.56 32.98"/>
        <path fill="#2F74EB" fill-rule="nonzero" d="M54.418 228.392c0-18.686 12.908-33.805 28.858-33.805M37.928 197.06c0 17.318 7.375 31.332 16.49 31.332"/>
        <path fill="#46455B" fill-rule="nonzero" d="M54.418 228.392c0-23.699 14.751-42.875 32.981-42.875"/>
        <path fill="#A8A8A8" fill-rule="nonzero" d="M49.471 228.63s3.546-.108 4.614-.858c1.068-.749 5.454-1.643 5.719-.442.265 1.202 5.328 5.976 1.325 6.008-4.003.032-9.3-.614-10.367-1.254-1.066-.64-1.29-3.455-1.29-3.455z"/>
        <path fill="#000" fill-rule="nonzero" d="M61.201 232.899c-4.003.033-9.3-.644-10.367-1.316-.813-.51-1.136-2.345-1.244-3.191l-.119.005s.225 2.954 1.291 3.625c1.067.672 6.365 1.35 10.368 1.316 1.155-.01 1.555-.435 1.533-1.064-.16.38-.602.618-1.462.625z" opacity=".2"/>
        <path fill="#A0616A" fill-rule="nonzero" d="M251.918 94.996c-.183 1.637-1.427 2.956-1.888 4.538-.694 2.38.506 4.934 2.147 6.788a14.947 14.947 0 0 0 10.426 4.97 4.43 4.43 0 0 0 1.723-.188 3.69 3.69 0 0 0 1.312-.9c1.236-1.246 1.899-2.972 2.163-4.71.265-1.738.162-3.509.058-5.264.001-.363-.065-.723-.193-1.062a2.718 2.718 0 0 0-.68-.84 15.86 15.86 0 0 0-2.921-2.13 3.354 3.354 0 0 1-1.224-.94 3.047 3.047 0 0 1-.379-1.127l-.322-1.65a3.253 3.253 0 0 0-.474-1.34c-.57-.771-1.66-.876-2.617-.914l-3.504-.138c-1.09-.043-2.526-.357-3.59-.142-.993.2-.663 1.12-.483 1.957.262 1.011.411 2.048.446 3.092z"/>
        <path fill="#000" fill-rule="nonzero" d="M251.918 94.996c-.183 1.637-1.427 2.956-1.888 4.538-.694 2.38.506 4.934 2.147 6.788a14.947 14.947 0 0 0 10.426 4.97 4.43 4.43 0 0 0 1.723-.188 3.69 3.69 0 0 0 1.312-.9c1.236-1.246 1.899-2.972 2.163-4.71.265-1.738.162-3.509.058-5.264.001-.363-.065-.723-.193-1.062a2.718 2.718 0 0 0-.68-.84 15.86 15.86 0 0 0-2.921-2.13 3.354 3.354 0 0 1-1.224-.94 3.047 3.047 0 0 1-.379-1.127l-.322-1.65a3.253 3.253 0 0 0-.474-1.34c-.57-.771-1.66-.876-2.617-.914l-3.504-.138c-1.09-.043-2.526-.357-3.59-.142-.993.2-.663 1.12-.483 1.957.262 1.011.411 2.048.446 3.092z" opacity=".1"/>
        <path fill="#605D82" fill-rule="nonzero" d="M274.325 169.834l-1.53 16.642c-.399 4.364-.806 8.747-1.588 13.055a63.638 63.638 0 0 1-.964 4.427c-1.045 4.065-2.562 8.039-3.051 12.207-.016.12-.029.243-.041.365a10.54 10.54 0 0 1-.523 2.71c-.245.635-.62 1.216-.886 1.844-.528 1.258-.598 2.648-.662 4.01a17.51 17.51 0 0 0-5.998-2.034c-1.017-.151-2.15-.258-2.843-1.012-.767-.833-.682-2.109-.554-3.228.405-3.475.808-6.95 1.21-10.421a26.97 26.97 0 0 1 .766-4.426c.139-.483.306-.958.476-1.434.234-.654.471-1.308.649-1.98.256-1.086.435-2.189.536-3.3.414-3.495.914-6.983 1.352-10.477l.023-.184c.657-5.295 1.156-10.615 1.012-15.948-.02-.79-.054-1.58-.106-2.372-.072-1.147-.177-1.755.78-2.474 1.06-.792 2.452-1.346 3.663-1.865.651-.281 7.826-2.809 7.993-2.254.337 1.183.514 2.405.526 3.634a40.125 40.125 0 0 1-.24 4.515z"/>
        <path fill="#000" fill-rule="nonzero" d="M271.267 199.991a62.151 62.151 0 0 1-.972 4.39c-1.056 4.031-2.587 7.972-3.08 12.105-.016.12-.03.24-.042.363-3.229-4.496-5.948-9.331-9.098-13.875.236-.649.475-1.297.655-1.964.258-1.077.439-2.17.54-3.272.419-3.466.923-6.925 1.365-10.39l.023-.182c.185.735.45 1.45.788 2.131 2.116 4.192 7.143 6.31 9.602 10.322.076.124.149.248.219.372z" opacity=".1"/>
        <path fill="#605D82" fill-rule="nonzero" d="M245.719 162.238c.105 3.366.648 6.701 1.19 10.025l1.118 6.858c.612 3.753 1.249 7.583 3.04 10.945 1.338 2.515 3.268 4.66 5.014 6.917 4.291 5.547 7.515 11.83 11.585 17.54 1.183 1.659 2.873 3.453 4.892 3.107 1.325-.228 2.287-1.322 3.329-2.166 1.227-.994 2.707-1.722 3.673-2.97.966-1.246 1.155-3.319-.153-4.206a6.936 6.936 0 0 0-1.498-.608c-2.03-.765-3.343-2.731-4.178-4.719-.836-1.987-1.342-4.124-2.455-5.973-2.42-4.016-7.366-6.137-9.448-10.334-1.166-2.351-1.277-5.061-1.366-7.68l-.228-6.676c-.024-.73-.044-1.489.255-2.156.797-1.777 3.201-1.943 5.149-2.168 2.21-.257 4.35-.927 6.309-1.975 1.121-.6 2.217-1.367 2.817-2.482.547-1.018.623-2.212.687-3.364l.674-12.098c.058-1.04.11-2.117-.259-3.093-.928-2.45-4.047-3.25-6.683-3.134-4.905.218-9.433 2.311-14.058 3.725-1.145.358-2.308.659-3.484.901-1.038.207-2.294.121-3.284.452-1.76.59-1.716 4.409-1.966 5.993a50.054 50.054 0 0 0-.672 9.34z"/>
        <path fill="#535070" fill-rule="nonzero" d="M272.23 219.04c.426.441.566 1.087.677 1.697.616 3.383.936 6.816.957 10.257a1.71 1.71 0 0 0 .18.93c.12.17.283.304.472.387 1.232.602 2.663-.237 3.69-1.158 1.904-1.709 3.515-4.002 3.623-6.593-.02-.667.003-1.335.068-1.999.168-.975.724-1.825 1.213-2.679a22.885 22.885 0 0 0 2.005-4.603c.187-.603.312-1.363-.15-1.784a1.665 1.665 0 0 0-.548-.293l-5.568-2.117c-.483-.184-1.683 2.975-1.874 3.32-.466.846-.93 1.325-1.865 1.52-.954.2-2.09-.086-2.981.402-1.507.825-.752 1.832.101 2.714zM263.027 221.1a1.71 1.71 0 0 0-.442-.534 2.063 2.063 0 0 0-.89-.288c-1.104-.179-2.412-.296-3.174.486-.714.733-.591 1.927-1.188 2.75-.19.26-.446.474-.61.75a2.714 2.714 0 0 0-.267 1.346c-.03 1.275-.061 2.552.031 3.824.078 1.066.266 2.184.966 3.019 1.123 1.34 3.148 1.533 4.946 1.62l1.456.07c.401.047.808.012 1.194-.104a1.908 1.908 0 0 0 1.029-1.079c.758-1.795-.442-3.729-1.182-5.53-.85-2.072-.697-4.372-1.87-6.33z"/>
        <path fill="#3F3D56" fill-rule="nonzero" d="M251.377 86.147a1.23 1.23 0 0 1 .08-.56c.206-.375.745-.272 1.151-.167 1.636.424 3.359.04 5.042.14 1.684.098 3.58.964 3.92 2.664a12.491 12.491 0 0 0 3.108-3.286c.467-.72.874-1.543.81-2.406-.091-1.244-1.106-2.174-2.046-2.964l-2.8-2.352a4.208 4.208 0 0 0-1.255-.82c-.647-.227-1.352-.119-2.036-.119-2.039.002-4.213-.953-6.027.006-.757.4-1.327 1.087-1.877 1.756l-2.5 3.045a1.637 1.637 0 0 0-.4.697c-.07.371.115.738.18 1.11.117.68-.167 1.407.052 2.06.363 1.084 1.643 1.238 2.425 1.86.292.23.749 1.016 1.096 1.006.627-.017 1.06-1.17 1.077-1.67z"/>
        <circle cx="256.013" cy="86.987" r="7.833" fill="#A0616A" fill-rule="nonzero"/>
        <path fill="#3F3D56" fill-rule="nonzero" d="M257.518 104.302a3.872 3.872 0 0 0-3.77-2.603 1.146 1.146 0 0 1-.695-.088.96.96 0 0 1-.285-.359 14.033 14.033 0 0 1-1.166-2.764c-.127-.424-.302-.924-.73-1.035a.985.985 0 0 0-.93.406 8.218 8.218 0 0 1-.665.839c-1.005.901-2.787.08-3.854.907-.174.135-.318.308-.501.431-.183.11-.38.196-.587.252a56.175 56.175 0 0 0-6.049 2.377c.71 4.289 1.437 8.651 3.1 12.665.792 1.91 1.69 3.78 2.323 5.75 1.405 4.36 1.467 9.027 1.483 13.61.01 3.137-.005 6.341-1.016 9.31a8.809 8.809 0 0 0-.572 2.044c-.06.708.144 1.487.716 1.906.33.218.71.351 1.103.39 1.753.257 3.52-.21 5.246-.612 4.626-1.074 9.343-1.69 14.052-2.303l7.89-1.028a4.569 4.569 0 0 0 1.633-.423c1.444-.793 1.58-2.972.684-4.357-.43-.664-1.036-1.209-1.397-1.913-.362-.704-.392-1.688.23-2.176 1.264-.992.887-2.832.947-4.441.169-4.5.146-9.002-.068-13.506a26.98 26.98 0 0 1-.045-2.801c.14-1.582.432-3.148.87-4.674l2.398-9.471c-.626-.993-1.826-1.623-2.962-1.91-1.136-.285-2.319-.37-3.438-.717-2.292-.713-4.332-2.521-6.726-2.353-.18.004-.359.047-.52.128-.54.307-.455 1.087-.49 1.709-.076 1.375-1.084 2.524-2.197 3.33-1.114.806-2.385 1.393-3.408 2.312-.367.278-.589.707-.604 1.168z"/>
        <path fill="#A0616A" fill-rule="nonzero" d="M225.958 113.446a9.173 9.173 0 0 1-1.647.866 5.366 5.366 0 0 0-1.578.783c-.222.195-.407.43-.549.692a3.137 3.137 0 0 0 .063 3.134 2.997 2.997 0 0 0 2.717 1.455 5.956 5.956 0 0 0 2.055-.626l5.523-2.445c.935-.414 1.944-.9 2.386-1.837a.435.435 0 0 0 .054-.292.478.478 0 0 0-.227-.243 12.454 12.454 0 0 1-3.215-3.098c-.227-.315-.504-1.057-.825-1.245-1.169-.688-3.822 2.236-4.757 2.856zM286.283 111.31l2.065 2.409c.443.517.887 1.034 1.29 1.584a18.628 18.628 0 0 1 2.365 4.55c.45 1.202.822 2.483.665 3.76a9.354 9.354 0 0 1-.517 1.913 24.094 24.094 0 0 1-1.402 3.45 19.694 19.694 0 0 1-1.58 2.417 56.085 56.085 0 0 1-5.233 6.114c-.706.713-1.002 1.867-1.309 2.831-.567 1.78-1.915 3.165-3.219 4.48-.42.451-.882.858-1.382 1.214a4.433 4.433 0 0 1-2.516.732 2.712 2.712 0 0 1-1.133-.24c-.892-.433-1.346-1.486-1.439-2.49a5.4 5.4 0 0 1 .434-2.665c1.185-2.68 4.227-3.842 6.378-5.798 1.26-1.146 2.225-2.587 3.176-4.012a13.947 13.947 0 0 0 1.607-2.875c.48-1.309.293-2.858.712-4.189.178-.562.493-1.07.684-1.627.19-.558.238-1.22-.095-1.703a2.426 2.426 0 0 0-.935-.699c-1.374-.712-2.912-1.628-3.175-3.178a3.46 3.46 0 0 1 .615-2.428c.498-.69 1.08-1.314 1.732-1.854.601-.543 1.611-1.153 2.212-1.696z"/>
        <path fill="#A0616A" fill-rule="nonzero" d="M224.231 116.736c-.377-.75-.849-1.514-1.61-1.886a3.015 3.015 0 0 0-2.341-.01 8.833 8.833 0 0 0-2.055 1.221l-1.842 1.335c-.417.27-.787.605-1.093.993-.291.47-.485.992-.57 1.536a10.802 10.802 0 0 0-.29 3.8c.293 2.042 1.545 3.825 2.924 5.38.86.97 1.924 1.951 3.234 1.993.566.017 1.195-.202 1.43-.708.082-.2.125-.414.128-.63.141-2.278-.687-4.502-1.654-6.577a4.165 4.165 0 0 1-.533-1.768.479.479 0 0 1 .078-.296.512.512 0 0 1 .315-.15c1.323-.258 3.601.752 4.53-.692.601-.936-.223-2.692-.65-3.54z"/>
        <path fill="#3F3D56" fill-rule="nonzero" d="M251.377 83.673a1.23 1.23 0 0 1 .08-.559c.206-.375.745-.273 1.151-.168 1.636.425 3.359.04 5.042.14 1.684.099 3.58.965 3.92 2.664a12.491 12.491 0 0 0 3.108-3.285c.467-.72.874-1.544.81-2.406-.091-1.244-1.106-2.175-2.046-2.964l-2.8-2.352a4.208 4.208 0 0 0-1.255-.82c-.647-.228-1.352-.12-2.036-.12-2.04.002-4.213-.952-6.027.007-.757.4-1.327 1.087-1.877 1.756l-2.5 3.044a1.637 1.637 0 0 0-.4.697c-.07.372.115.738.18 1.111.117.68-.167 1.406.052 2.06.363 1.083 1.643 1.237 2.425 1.859.292.231.749 1.016 1.096 1.007.627-.018 1.06-1.17 1.077-1.67zM234.342 105.708c-.325.207-.61.47-.842.775-.295.44-.355.997-.608 1.462-.542.995-1.81 1.35-2.601 2.166a.807.807 0 0 0-.25.424.937.937 0 0 0 .212.61l3.814 5.926c1.27.11 2.488-.676 3.759-.571.474.039.96.2 1.414.062.326-.143.631-.327.908-.549.758-.473 1.768-.529 2.403-1.153.61-.6.689-1.538.681-2.389a9.494 9.494 0 0 0-.226-2.197c-.562-2.275-2.322-4.02-3.426-6.035-.537-.981-.83-1.556-1.966-.882-1.143.677-2.197 1.574-3.272 2.351zM280.296 102.658a8.985 8.985 0 0 1 1.92 1.716c.581.765.91 1.7 1.469 2.483.54.759 1.277 1.346 1.891 2.045.931 1.059 1.562 2.351 2.181 3.626a53.84 53.84 0 0 1-4.935 5.693 1.59 1.59 0 0 1-.75.503 1.197 1.197 0 0 1-1.06-.441c-.274-.294-.469-.657-.731-.962a3.744 3.744 0 0 0-2.333-1.152c-.878-.087-1.762-.099-2.643-.037a1.026 1.026 0 0 1-.564-.097.962.962 0 0 1-.308-.36c-1.033-1.795-.701-4.047-.337-6.095l.837-4.698c.12-.897.355-1.775.696-2.61.316-.692 1.025-1.863 1.896-1.657.878.209 2.033 1.5 2.771 2.043z"/>
        <circle cx="127.388" cy="119.968" r="12.78" fill="#FFF" fill-rule="nonzero"/>
        <path fill="#57B894" fill-rule="nonzero" d="M127.388 104.714c-8.424 0-15.253 6.83-15.253 15.254s6.829 15.253 15.253 15.253c8.425 0 15.254-6.83 15.254-15.253-.025-8.415-6.84-15.23-15.254-15.254zm-3.131 23.386l-7.818-7.817 2.193-2.193 5.632 5.632 11.888-11.887 2.192 2.192-14.087 14.073z"/>
    </g>
</svg>
